<?xml version="1.0" encoding="UTF-8"?>
<svg width="180" height="50" viewBox="0 0 180 50" xmlns="http://www.w3.org/2000/svg">
    <defs>
        <!-- Dégradé principal moderne -->
        <linearGradient id="modernGradient" x1="0%" y1="0%" x2="100%" y2="100%">
            <stop offset="0%" style="stop-color:#0F172A;stop-opacity:1" />
            <stop offset="100%" style="stop-color:#1E293B;stop-opacity:1" />
        </linearGradient>
        
        <!-- Effet de brillance subtil -->
        <linearGradient id="subtleShine" x1="0%" y1="0%" x2="100%" y2="0%">
            <stop offset="0%" style="stop-color:#ffffff;stop-opacity:0" />
            <stop offset="50%" style="stop-color:#ffffff;stop-opacity:0.05" />
            <stop offset="100%" style="stop-color:#ffffff;stop-opacity:0" />
        </linearGradient>
        
        <!-- Ombre douce -->
        <filter id="softShadow" x="-10%" y="-10%" width="120%" height="120%">
            <feGaussianBlur in="SourceAlpha" stdDeviation="1.5"/>
            <feOffset dx="0.5" dy="0.5" result="offsetblur"/>
            <feComponentTransfer>
                <feFuncA type="linear" slope="0.2"/>
            </feComponentTransfer>
            <feMerge>
                <feMergeNode/>
                <feMergeNode in="SourceGraphic"/>
            </feMerge>
        </filter>
    </defs>

    <!-- Groupe principal -->
    <g filter="url(#softShadow)">
        <!-- Fond avec coins arrondis -->
        <rect x="2" y="2" width="176" height="46" rx="8" fill="url(#modernGradient)"/>
        <rect x="2" y="2" width="176" height="46" rx="8" fill="url(#subtleShine)"/>
        
        <!-- Logo text -->
        <g transform="translate(15, 32)" fill="white">
            <!-- J moderne -->
            <path d="M12 0 L12 -22 Q12 -25 9 -25 L6 -25 Q3 -25 3 -22 L3 -4 Q3 -1 6 -1 L9 -1 Q12 -1 12 -4 Z" 
                  fill="white" stroke="white" stroke-width="0.5"/>
            <circle cx="7.5" cy="-26.5" r="1.5" fill="white"/>
            
            <!-- P élégant -->
            <path d="M25 0 L25 -25 L32 -25 Q35 -25 35 -22 L35 -15 Q35 -12 32 -12 L25 -12 Z" 
                  fill="white" stroke="white" stroke-width="0.5"/>
            <path d="M25 -18.5 L32 -18.5" stroke="white" stroke-width="1.5"/>
            
            <!-- L minimaliste -->
            <path d="M45 -25 L45 0 L52 0" 
                  stroke="white" stroke-width="2" stroke-linecap="round" stroke-linejoin="round"/>
        </g>
        
        <!-- Séparateur vertical subtil -->
        <path d="M120 10 L120 40" stroke="white" stroke-width="0.5" opacity="0.2"/>
        
        <!-- Tagline -->
        <text x="140" y="28" 
              font-family="'Inter', sans-serif" 
              font-size="7" 
              fill="white" 
              font-weight="500" 
              letter-spacing="0.5"
              text-anchor="middle">
            FULL STACK
        </text>
        <text x="140" y="38" 
              font-family="'Inter', sans-serif" 
              font-size="7" 
              fill="#94A3B8" 
              font-weight="400" 
              letter-spacing="0.5"
              text-anchor="middle">
            DEVELOPER
        </text>
    </g>
</svg> 